<?xml version="1.0" standalone="no"?><!DOCTYPE svg PUBLIC "-//W3C//DTD SVG 1.1//EN" "http://www.w3.org/Graphics/SVG/1.1/DTD/svg11.dtd"><svg t="1609239346984" class="icon" viewBox="0 0 1024 1024" version="1.1" xmlns="http://www.w3.org/2000/svg" p-id="4368" xmlns:xlink="http://www.w3.org/1999/xlink" width="200" height="200"><defs><style type="text/css"></style></defs><path d="M952.888889 1024 156.444444 1024C125.013333 1024 99.555556 998.542222 99.555556 967.111111L99.555556 711.111111 42.666667 711.111111C26.965333 711.111111 14.222222 698.368 14.222222 682.666667 14.222222 666.965333 26.965333 654.222222 42.666667 654.222222L99.555556 654.222222 99.555556 369.777778 42.666667 369.777778C26.965333 369.777778 14.222222 357.034667 14.222222 341.333333 14.222222 325.632 26.965333 312.888889 42.666667 312.888889L99.555556 312.888889 99.555556 56.888889C99.555556 25.457778 125.013333 0 156.444444 0L952.888889 0C984.32 0 1009.777778 25.457778 1009.777778 56.888889L1009.777778 967.111111C1009.777778 998.542222 984.32 1024 952.888889 1024ZM355.555556 56.888889 156.444444 56.888889 156.444444 312.888889 213.333333 312.888889C229.034667 312.888889 241.777778 325.632 241.777778 341.333333 241.777778 357.034667 229.034667 369.777778 213.333333 369.777778L156.444444 369.777778 156.444444 654.222222 213.333333 654.222222C229.034667 654.222222 241.777778 666.965333 241.777778 682.666667 241.777778 698.368 229.034667 711.111111 213.333333 711.111111L156.444444 711.111111 156.444444 967.111111 355.555556 967.111111 355.555556 56.888889ZM952.888889 56.888889 412.444444 56.888889 412.444444 967.111111 952.888889 967.111111 952.888889 56.888889Z" p-id="4369" fill="#13C2C2"></path></svg>